<svg xmlns="http://www.w3.org/2000/svg" version="1.1" xmlns:xlink="http://www.w3.org/1999/xlink" xmlns:svgjs="http://svgjs.dev/svgjs" width="128" height="128" viewBox="0 0 128 128"><g transform="matrix(0.6204819277108434,0,0,0.6204819277108434,24.202407190865216,12.333870967741937)"><svg viewBox="0 0 119 155" data-background-color="#000000" preserveAspectRatio="xMidYMid meet" height="166" width="128" xmlns="http://www.w3.org/2000/svg" xmlns:xlink="http://www.w3.org/1999/xlink"><g id="tight-bounds" transform="matrix(1,0,0,1,0.1299793956043942,0.25)"><svg viewBox="0 0 118.74004120879121 154.5" height="154.5" width="118.74004120879121"><g><svg viewBox="0 0 118.74004120879121 154.5" height="154.5" width="118.74004120879121"><g><svg viewBox="0 0 118.74004120879121 154.5" height="154.5" width="118.74004120879121"><g id="textblocktransform"><svg viewBox="0 0 118.74004120879121 154.5" height="154.5" width="118.74004120879121" id="textblock"><g><svg viewBox="0 0 118.74004120879121 154.5" height="154.5" width="118.74004120879121"><g transform="matrix(1,0,0,1,0,0)"><svg width="118.74004120879121" viewBox="4.13 -35.55 27.32 35.55" height="154.5" data-palette-color="url(#e00b10dd-3ad8-42e3-b309-bd7c4b608a44)"></svg></g></svg></g></svg></g></svg></g></svg></g><defs></defs><mask id="81b75730-e361-43a9-ba79-b72a15c8bd54"><g id="SvgjsG1188"><svg viewBox="0 0 118.74004120879121 154.5" height="154.5" width="118.74004120879121"><g><svg viewBox="0 0 118.74004120879121 154.5" height="154.5" width="118.74004120879121"><g><svg viewBox="0 0 118.74004120879121 154.5" height="154.5" width="118.74004120879121"><g id="SvgjsG1187"><svg viewBox="0 0 118.74004120879121 154.5" height="154.5" width="118.74004120879121" id="SvgjsSvg1186"><g><svg viewBox="0 0 118.74004120879121 154.5" height="154.5" width="118.74004120879121"><g transform="matrix(1,0,0,1,0,0)"><svg width="118.74004120879121" viewBox="4.13 -35.55 27.32 35.55" height="154.5" data-palette-color="url(#e00b10dd-3ad8-42e3-b309-bd7c4b608a44)"><path d="M31.45-35.55L31.45 0 26.73 0 8.84-27.39 8.84 0 4.13 0 4.13-35.55 8.84-35.55 26.78-8.03 26.78-35.55 31.45-35.55Z" opacity="1" transform="matrix(1,0,0,1,0,0)" fill="white" class="wordmark-text-0" id="SvgjsPath1185"></path></svg></g></svg></g></svg></g></svg></g></svg></g><defs><mask></mask></defs></svg><rect width="118.74004120879121" height="154.5" fill="black" stroke="none" visibility="hidden"></rect></g></mask><linearGradient x1="0" x2="1" y1="0.578" y2="0.595" id="e00b10dd-3ad8-42e3-b309-bd7c4b608a44"><stop stop-color="#6ee2f5" offset="0"></stop><stop stop-color="#6454f0" offset="1"></stop></linearGradient><rect width="118.74004120879121" height="154.5" fill="url(#e00b10dd-3ad8-42e3-b309-bd7c4b608a44)" mask="url(#81b75730-e361-43a9-ba79-b72a15c8bd54)" data-fill-palette-color="primary"></rect></svg><rect width="118.74004120879121" height="154.5" fill="none" stroke="none" visibility="hidden"></rect></g></svg></g></svg>